<svg width="37" height="34" viewBox="0 0 37 34" fill="none" xmlns="http://www.w3.org/2000/svg">
<g clip-path="url(#clip0_1_325)">
<path d="M1.07849 17.3113C1.07849 26.4137 8.75333 33.7925 18.2209 33.7925C27.6885 33.7925 35.3633 26.4137 35.3633 17.3113C35.3633 8.20891 27.6885 0.830078 18.2209 0.830078C8.75333 0.830078 1.07849 8.20891 1.07849 17.3113Z" fill="url(#paint0_linear_1_325)"/>
<path d="M12.6833 18.5163L14.7172 23.9286C14.7172 23.9286 14.9714 24.4347 15.2438 24.4347C15.5162 24.4347 19.5657 20.3843 19.5657 20.3843L24.0693 12.0215L12.756 17.1195L12.6833 18.5163Z" fill="#C8DAEA"/>
<path d="M15.379 19.9043L14.9885 23.8936C14.9885 23.8936 14.8251 25.1157 16.0963 23.8936C17.3674 22.6713 18.5841 21.7286 18.5841 21.7286" fill="#A9C6D8"/>
<path d="M12.7196 18.7094L8.53646 17.3988C8.53646 17.3988 8.03715 17.204 8.19752 16.7616C8.23066 16.6704 8.29732 16.5929 8.49708 16.459C9.42423 15.8378 25.6545 10.2291 25.6545 10.2291C25.6545 10.2291 26.1129 10.0807 26.3839 10.1793C26.5077 10.2244 26.5867 10.2754 26.6532 10.4615C26.6774 10.5292 26.6914 10.6732 26.6896 10.8165C26.688 10.9199 26.675 11.0155 26.6654 11.1657C26.5666 12.6993 23.6089 24.1436 23.6089 24.1436C23.6089 24.1436 23.4318 24.8134 22.7977 24.8361C22.5665 24.8445 22.2858 24.7994 21.9502 24.5218C20.706 23.4928 16.4048 20.7137 15.4546 20.1027C15.4008 20.0683 15.3857 20.0235 15.3766 19.9798C15.3632 19.9155 15.4347 19.8354 15.4347 19.8354C15.4347 19.8354 22.9239 13.4349 23.1231 12.7634C23.1385 12.7113 23.0806 12.6856 23.0021 12.7081C22.5046 12.8841 13.8817 18.1189 12.9301 18.6972C12.8745 18.731 12.7196 18.7094 12.7196 18.7094Z" fill="white"/>
</g>
<defs>
<linearGradient id="paint0_linear_1_325" x1="18.2209" y1="33.7923" x2="18.2209" y2="0.829939" gradientUnits="userSpaceOnUse">
<stop stop-color="#1D93D2"/>
<stop offset="1" stop-color="#38B0E3"/>
</linearGradient>
<clipPath id="clip0_1_325">
<rect width="35.999" height="32.9624" fill="white" transform="translate(0.749023 0.830078)"/>
</clipPath>
</defs>
</svg>
