<svg width="34" height="34" viewBox="0 0 34 34" fill="none" xmlns="http://www.w3.org/2000/svg">
<g clip-path="url(#clip0_1_322)">
<path d="M16.8745 33.7925C26.194 33.7925 33.7491 26.4136 33.7491 17.3113C33.7491 8.20899 26.194 0.830078 16.8745 0.830078C7.55501 0.830078 0 8.20899 0 17.3113C0 26.4136 7.55501 33.7925 16.8745 33.7925Z" fill="#25D366"/>
<path fill-rule="evenodd" clip-rule="evenodd" d="M17.431 26.4805H17.4268C15.7474 26.48 14.0973 26.0684 12.6317 25.2876L7.3125 26.6505L8.73601 21.5721C7.8579 20.0858 7.39589 18.3999 7.39659 16.6726C7.39884 11.2692 11.9001 6.87305 17.4308 6.87305C20.1151 6.87418 22.6344 7.89482 24.5289 9.74724C26.4233 11.5996 27.466 14.0618 27.465 16.6804C27.4628 22.0827 22.9633 26.4783 17.431 26.4805ZM12.8782 23.5135L13.1827 23.69C14.4632 24.4322 15.931 24.8249 17.4276 24.8254H17.431C22.0277 24.8254 25.7689 21.1713 25.7708 16.6799C25.7717 14.5033 24.905 12.4568 23.3304 10.9171C21.7558 9.37744 19.6618 8.52907 17.4342 8.52832C12.8339 8.52832 9.09262 12.1821 9.09079 16.6733C9.09016 18.2124 9.53108 19.7113 10.3659 21.0082L10.5642 21.3164L9.72169 24.3222L12.8782 23.5135ZM22.1427 18.7903C22.3175 18.8729 22.4357 18.9286 22.4861 19.0108C22.5487 19.113 22.5487 19.6033 22.3399 20.1753C22.1309 20.7473 21.1292 21.2694 20.6475 21.3396C20.2156 21.4027 19.6689 21.4291 19.0684 21.2426C18.7042 21.1298 18.2373 20.9791 17.6391 20.7268C15.2887 19.7355 13.7002 17.5106 13.4 17.09C13.379 17.0606 13.3643 17.04 13.356 17.0293L13.3541 17.0266C13.2214 16.8537 12.3323 15.6952 12.3323 14.4962C12.3323 13.3682 12.8996 12.777 13.1607 12.5048C13.1786 12.4862 13.1951 12.469 13.2098 12.4533C13.4396 12.2082 13.7113 12.1468 13.8784 12.1468C14.0455 12.1468 14.2128 12.1483 14.359 12.1556C14.377 12.1564 14.3957 12.1563 14.4151 12.1562C14.5612 12.1553 14.7433 12.1543 14.9231 12.5759C14.9922 12.7381 15.0933 12.9787 15.2 13.2323C15.4157 13.7453 15.6541 14.3121 15.696 14.3941C15.7588 14.5167 15.8005 14.6597 15.7169 14.8231C15.7044 14.8476 15.6928 14.8708 15.6817 14.8929C15.6189 15.0181 15.5728 15.1101 15.4662 15.2316C15.4244 15.2794 15.3811 15.3309 15.3377 15.3824C15.2515 15.485 15.1653 15.5876 15.0902 15.6606C14.9646 15.7827 14.834 15.9152 14.9802 16.1604C15.1265 16.4055 15.6297 17.2074 16.375 17.8567C17.1762 18.5547 17.8726 18.8497 18.2255 18.9992C18.2944 19.0285 18.3503 19.0521 18.3913 19.0722C18.6418 19.1947 18.7881 19.1742 18.9344 19.0108C19.0807 18.8474 19.5612 18.2958 19.7282 18.0507C19.8953 17.8057 20.0625 17.8464 20.2923 17.9281C20.5222 18.01 21.7548 18.6022 22.0056 18.7248C22.0545 18.7487 22.1003 18.7704 22.1427 18.7903Z" fill="#FDFDFD"/>
</g>
<defs>
<clipPath id="clip0_1_322">
<rect width="33.7491" height="32.9624" fill="white" transform="translate(0 0.830078)"/>
</clipPath>
</defs>
</svg>
